<svg width="198" height="119" viewBox="0 0 198 119" fill="none" xmlns="http://www.w3.org/2000/svg">
<path d="M161.031 19.5479C158.102 18.9924 156.175 16.1536 156.727 13.2045C157.279 10.2554 160.102 8.31522 163.028 8.87072C165.957 9.42622 167.884 12.265 167.332 15.2141C166.78 18.1632 163.961 20.1034 161.031 19.5479ZM194.706 7.77197C194.665 7.76379 194.629 7.7597 194.588 7.75153C189.65 6.81207 185.581 5.62754 181.987 4.58188C165.786 -0.135841 152.434 -9.1179 108.419 26.553C77.2842 51.7796 50.284 46.7228 32.2501 45.0645C12.6866 43.2672 0.125771 37.0505 0 36.9892C0 36.9892 91.3462 157.975 139.115 38.3657C114.411 92.1559 143.31 119 143.31 119L143.018 111.868C141.31 70.0214 155.498 44.4477 167.697 30.368C180.919 15.1038 194.73 9.65497 194.868 9.60187L198 8.39283L194.706 7.77197Z" fill="#179FDB"/>
</svg>
